# xmcd CD database file
#
# Track frame offsets:
#	150
#	19801
#	39237
#	50117
#	57960
#	67191
#	78996
#	88703
#	101948
#	121780
#	133648
#	144008
#	152705
#
# Disc length: 2318 seconds
#
# Revision: 0
# Processed by: cddbd v1.5.2PL0 Copyright (c) Steve Scherf et al.
# Submitted via: CDex 1.51
#
DISCID=ad090c0d
DTITLE=Greg Turner - Aslan Fusion
DYEAR=1900
DGENRE=New Age
TTITLE0=River of stars
TTITLE1=Champa
TTITLE2=Vietnamese melody
TTITLE3=Borobudur
TTITLE4=Mukalinda
TTITLE5=Spirit House
TTITLE6=Sorcerers Crossing
TTITLE7=Traveling Shaman
TTITLE8=Magicians Companion
TTITLE9=Lotus Dance
TTITLE10=Buddha Palm
TTITLE11=Lost Temple
TTITLE12=Mansoon
EXTD=
EXTT0=
EXTT1=
EXTT2=
EXTT3=
EXTT4=
EXTT5=
EXTT6=
EXTT7=
EXTT8=
EXTT9=
EXTT10=
EXTT11=
EXTT12=
PLAYORDER=
